<?xml version="1.0" standalone="no"?>
<!DOCTYPE svg PUBLIC "-//W3C//DTD SVG 20010904//EN"
 "http://www.w3.org/TR/2001/REC-SVG-20010904/DTD/svg10.dtd">
<svg version="1.0" xmlns="http://www.w3.org/2000/svg"
 width="512.000000pt" height="512.000000pt" viewBox="0 0 512.000000 512.000000"
 preserveAspectRatio="xMidYMid meet">

<g transform="translate(0.000000,512.000000) scale(0.100000,-0.100000)"
 stroke="none">
<path d="M4350 5104 c-227 -48 -422 -242 -476 -470 -24 -103 -15 -267 19 -359
l27 -70 -684 -684 -684 -684 -82 27 c-164 54 -327 43 -485 -34 -143 -69 -258
-198 -312 -350 -35 -97 -43 -263 -19 -361 55 -221 242 -408 461 -464 76 -19
224 -19 300 0 33 8 97 33 143 56 275 135 412 494 298 781 l-23 56 686 686 686
686 75 -27 c247 -86 549 3 705 208 152 201 175 442 64 669 -125 254 -419 395
-699 334z"/>
<path d="M2050 4524 c-14 -2 -65 -9 -115 -15 -114 -14 -290 -57 -425 -104
-107 -37 -380 -166 -399 -189 -8 -9 78 -160 329 -576 187 -310 344 -568 349
-573 5 -5 29 2 57 16 110 55 217 85 367 102 l57 6 0 670 0 669 -97 -1 c-54 -1
-109 -3 -123 -5z"/>
<path d="M2360 3858 l0 -673 103 -22 102 -23 493 493 c270 270 492 495 492
499 0 11 -166 111 -271 164 -160 80 -339 143 -520 184 -96 22 -300 50 -360 50
l-39 0 0 -672z"/>
<path d="M924 4092 c-50 -37 -114 -87 -143 -111 l-52 -45 477 -477 c402 -402
480 -476 495 -468 16 8 -22 76 -323 577 -188 312 -346 572 -352 579 -8 9 -32
-3 -102 -55z"/>
<path d="M603 3803 c-343 -389 -547 -847 -592 -1333 -6 -63 -11 -134 -11 -157
l0 -43 674 0 673 0 6 78 c15 180 97 377 214 511 23 27 43 53 43 58 0 4 -213
221 -473 481 l-474 474 -60 -69z"/>
<path d="M3632 3057 l-493 -494 14 -59 c9 -32 18 -78 22 -101 l7 -43 675 0
676 0 -7 101 c-18 266 -96 538 -228 804 -62 124 -156 285 -167 285 -3 0 -228
-222 -499 -493z"/>
<path d="M3186 2248 c-3 -13 -6 -42 -6 -64 0 -62 -46 -229 -85 -311 -39 -84
-83 -150 -139 -211 l-40 -43 477 -477 476 -476 32 29 c59 56 191 220 261 325
140 208 266 508 317 757 26 126 51 335 51 425 l0 68 -669 0 -669 0 -6 -22z"/>
<path d="M6 2172 c-8 -13 22 -246 49 -380 14 -69 44 -182 67 -251 50 -157 146
-364 165 -357 16 6 1101 659 1127 679 18 13 17 16 -12 103 -17 49 -33 107 -37
129 -3 22 -8 50 -11 63 l-4 22 -670 0 c-368 0 -671 -4 -674 -8z"/>
<path d="M911 1450 c-310 -186 -568 -343 -574 -349 -16 -16 143 -238 272 -381
l50 -55 477 476 477 477 -46 57 c-26 31 -55 70 -64 86 -10 16 -20 29 -23 29
-3 0 -260 -153 -569 -340z"/>
<path d="M1202 1077 l-473 -473 33 -30 c60 -56 172 -141 273 -207 126 -82 275
-161 285 -150 19 20 511 1236 504 1242 -21 18 -134 91 -141 91 -5 0 -221 -213
-481 -473z"/>
<path d="M2825 1540 c-5 -8 628 -1076 680 -1146 11 -15 17 -13 71 23 67 46
109 79 179 141 l49 43 -474 474 c-261 261 -480 475 -487 475 -6 0 -15 -5 -18
-10z"/>
<path d="M2700 1460 c-49 -27 -153 -66 -230 -87 -47 -12 -103 -17 -205 -17
-123 0 -153 3 -243 28 -57 15 -105 27 -107 25 -12 -13 -505 -1226 -501 -1235
5 -12 214 -84 316 -109 482 -115 971 -73 1430 122 118 50 270 130 270 142 0
10 -668 1121 -684 1138 -8 9 -19 7 -46 -7z"/>
</g>
</svg>
