<svg id="svg" version="1.1" xmlns="http://www.w3.org/2000/svg" xmlns:xlink="http://www.w3.org/1999/xlink" width="400" height="406.8085106382979" viewBox="0, 0, 400,406.8085106382979"><g id="svgg"><path id="path0" d="M202.882 165.102 C 202.601 165.486,202.496 165.530,202.649 165.200 C 202.803 164.870,202.774 164.740,202.586 164.912 C 202.053 165.397,202.019 166.399,202.535 166.412 C 202.791 166.419,202.685 166.608,202.300 166.832 C 201.389 167.362,201.193 244.202,202.100 245.179 C 202.504 245.614,202.493 245.656,202.038 245.397 C 201.664 245.184,201.571 245.229,201.758 245.533 C 201.967 245.871,216.303 245.991,257.090 245.997 C 287.367 246.002,312.219 246.086,312.317 246.184 C 312.416 246.282,312.362 246.866,312.199 247.481 C 312.035 248.097,311.818 248.374,311.717 248.098 C 311.238 246.796,310.800 248.366,310.800 251.386 C 310.800 254.528,310.753 254.713,310.000 254.516 C 309.560 254.401,309.179 254.463,309.153 254.653 C 309.115 254.943,308.967 256.983,308.832 259.100 C 308.814 259.375,308.395 259.613,307.900 259.628 C 307.041 259.655,307.037 259.672,307.800 260.000 C 308.514 260.307,308.522 260.347,307.876 260.372 C 307.478 260.387,307.259 260.572,307.389 260.782 C 307.819 261.478,307.144 263.121,306.341 263.331 C 305.907 263.445,305.583 263.777,305.623 264.069 C 305.867 265.870,305.548 267.163,304.800 267.400 C 304.142 267.609,304.000 268.005,304.000 269.627 C 304.000 271.578,303.719 271.899,302.250 271.631 C 302.058 271.596,301.989 272.031,302.098 272.599 C 302.222 273.250,302.131 273.577,301.851 273.484 C 301.124 273.241,300.400 274.260,300.400 275.525 C 300.400 276.370,300.172 276.766,299.600 276.916 C 298.987 277.076,298.800 277.462,298.800 278.563 C 298.800 279.733,298.652 280.000,298.000 280.000 C 297.467 280.000,297.200 280.267,297.200 280.800 C 297.200 281.240,297.020 281.623,296.800 281.650 C 296.580 281.678,296.175 281.723,295.900 281.750 C 295.625 281.778,295.377 282.025,295.350 282.300 C 295.322 282.575,295.278 282.959,295.250 283.153 C 295.223 283.348,294.847 283.599,294.414 283.712 C 293.896 283.848,293.643 284.238,293.671 284.859 C 293.745 286.514,293.617 286.800,292.800 286.800 C 292.283 286.800,292.000 287.067,292.000 287.553 C 292.000 287.970,291.643 288.400,291.200 288.516 C 290.721 288.641,290.400 289.062,290.400 289.563 C 290.400 290.023,290.239 290.400,290.042 290.400 C 289.845 290.400,289.269 290.831,288.763 291.357 C 288.256 291.883,287.600 292.221,287.304 292.108 C 287.009 291.995,286.796 292.059,286.831 292.251 C 287.041 293.400,286.750 293.912,286.000 293.716 C 285.386 293.555,285.200 293.704,285.200 294.353 C 285.200 295.110,284.795 295.389,283.900 295.247 C 283.735 295.221,283.600 295.650,283.600 296.200 C 283.600 296.948,283.389 297.200,282.763 297.200 C 282.262 297.200,281.841 297.521,281.716 298.000 C 281.595 298.462,281.170 298.800,280.711 298.800 C 280.185 298.800,279.989 298.994,280.133 299.371 C 280.367 299.980,279.492 300.959,279.082 300.548 C 278.718 300.184,276.733 300.768,276.979 301.166 C 277.260 301.621,276.225 302.459,275.560 302.314 C 275.272 302.251,275.006 302.425,274.968 302.700 C 274.931 302.975,274.877 303.359,274.850 303.553 C 274.822 303.748,274.440 304.001,274.000 304.116 C 273.052 304.364,272.917 305.600,273.837 305.600 C 274.188 305.600,274.567 305.954,274.681 306.387 C 274.794 306.819,275.207 307.275,275.599 307.400 C 275.990 307.524,276.774 308.025,277.340 308.513 C 277.906 309.001,278.834 309.760,279.403 310.200 C 279.972 310.640,280.866 311.360,281.388 311.800 C 281.911 312.240,282.987 313.050,283.779 313.600 C 284.571 314.150,285.650 314.960,286.176 315.400 C 287.398 316.421,288.879 317.606,290.067 318.512 C 290.580 318.904,292.148 320.119,293.551 321.212 C 294.954 322.305,296.259 323.200,296.451 323.200 C 296.643 323.200,296.800 323.470,296.800 323.800 C 296.800 324.130,297.056 324.400,297.369 324.400 C 297.682 324.400,298.473 324.850,299.127 325.400 C 299.781 325.950,300.495 326.400,300.715 326.400 C 300.935 326.400,301.219 326.672,301.346 327.003 C 301.473 327.335,302.033 327.814,302.589 328.068 C 303.145 328.321,303.600 328.749,303.600 329.018 C 303.600 329.287,303.915 329.613,304.300 329.744 C 304.685 329.874,305.810 330.620,306.800 331.400 C 307.790 332.180,308.909 332.924,309.287 333.053 C 309.664 333.181,310.082 333.627,310.214 334.043 C 310.346 334.459,310.790 334.800,311.200 334.800 C 311.610 334.800,312.060 335.160,312.200 335.600 C 312.340 336.040,312.652 336.400,312.893 336.400 C 313.499 336.400,318.716 340.405,318.970 341.065 C 319.082 341.359,319.380 341.600,319.630 341.600 C 319.880 341.600,320.650 342.048,321.342 342.596 C 322.034 343.145,323.030 343.910,323.556 344.296 C 324.082 344.683,324.913 345.405,325.402 345.900 C 325.891 346.395,326.487 346.800,326.726 346.800 C 326.965 346.800,327.304 347.029,327.480 347.310 C 327.656 347.590,328.340 348.158,329.000 348.573 C 329.660 348.987,330.344 349.568,330.520 349.863 C 330.696 350.158,331.094 350.400,331.406 350.400 C 331.717 350.400,332.165 350.760,332.400 351.200 C 332.635 351.640,333.032 352.000,333.281 352.000 C 333.529 352.000,334.018 352.274,334.366 352.609 C 335.523 353.721,338.104 355.600,338.476 355.600 C 338.677 355.600,339.035 356.154,339.271 356.831 C 339.635 357.874,339.849 358.024,340.683 357.815 C 341.260 357.670,341.570 357.725,341.433 357.947 C 341.302 358.159,341.550 358.234,341.999 358.116 C 342.443 358.000,342.800 357.570,342.800 357.153 C 342.800 356.675,343.083 356.400,343.573 356.400 C 343.998 356.400,344.460 356.040,344.600 355.600 C 344.740 355.160,345.118 354.800,345.440 354.800 C 346.092 354.800,346.835 353.224,346.476 352.600 C 346.350 352.380,346.560 352.455,346.943 352.766 C 347.561 353.267,347.666 353.235,347.863 352.479 C 347.986 352.010,348.427 351.518,348.843 351.386 C 349.259 351.254,349.600 350.798,349.600 350.373 C 349.600 349.867,349.876 349.600,350.400 349.600 C 350.924 349.600,351.200 349.333,351.200 348.827 C 351.200 348.402,351.541 347.946,351.958 347.813 C 352.428 347.664,352.815 347.045,352.976 346.186 C 353.168 345.166,353.443 344.800,354.018 344.800 C 354.585 344.800,354.800 344.526,354.800 343.800 C 354.800 343.067,355.013 342.800,355.600 342.800 C 356.118 342.800,356.400 342.533,356.400 342.043 C 356.400 341.570,356.774 341.193,357.400 341.036 C 357.950 340.898,358.400 340.584,358.400 340.339 C 358.400 340.094,358.789 339.557,359.264 339.144 C 359.739 338.732,360.010 338.277,359.866 338.133 C 359.723 337.989,360.009 337.671,360.502 337.427 C 361.091 337.135,361.442 336.551,361.523 335.729 C 361.615 334.784,361.886 334.415,362.623 334.230 C 363.160 334.095,363.600 333.718,363.600 333.392 C 363.600 333.067,363.867 332.800,364.192 332.800 C 364.518 332.800,364.904 332.324,365.050 331.742 C 365.196 331.160,365.650 330.350,366.058 329.942 C 366.466 329.534,366.800 328.767,366.800 328.237 C 366.800 327.460,366.960 327.317,367.630 327.492 C 368.193 327.639,368.435 327.530,368.383 327.155 C 368.153 325.509,368.431 324.037,368.936 324.231 C 369.573 324.475,370.573 323.404,370.229 322.846 C 370.096 322.632,370.396 322.399,370.894 322.329 C 371.624 322.225,371.824 321.908,371.924 320.700 C 372.016 319.594,372.230 319.200,372.739 319.200 C 373.162 319.200,373.455 318.862,373.496 318.327 C 373.532 317.846,373.862 317.285,374.229 317.080 C 374.776 316.774,374.797 316.644,374.348 316.359 C 373.917 316.086,373.950 316.011,374.500 316.006 C 375.149 316.000,375.379 315.229,375.307 313.300 C 375.297 313.025,375.449 312.800,375.644 312.800 C 375.840 312.800,376.000 313.106,376.000 313.480 C 376.000 314.583,376.824 313.483,376.961 312.197 C 377.027 311.581,377.421 310.828,377.836 310.524 C 378.251 310.221,378.610 309.754,378.634 309.486 C 378.658 309.219,378.706 308.525,378.739 307.944 C 378.782 307.209,379.010 306.906,379.492 306.944 C 379.934 306.980,380.203 306.694,380.235 306.155 C 380.346 304.285,380.805 303.227,381.404 303.457 C 381.732 303.583,382.000 303.501,382.000 303.276 C 382.000 303.051,381.775 302.776,381.500 302.665 C 381.100 302.504,381.100 302.457,381.500 302.432 C 381.775 302.414,382.000 301.950,382.000 301.400 C 382.000 300.771,382.226 300.400,382.610 300.400 C 383.261 300.400,384.025 298.833,383.930 297.691 C 383.781 295.883,384.019 295.200,384.800 295.200 C 385.464 295.200,385.600 294.933,385.600 293.627 C 385.600 292.411,385.780 291.997,386.392 291.803 C 386.827 291.664,387.166 291.427,387.145 291.276 C 386.835 289.104,387.276 286.800,388.000 286.800 C 388.680 286.800,388.800 286.533,388.800 285.021 C 388.800 283.671,389.045 282.977,389.813 282.148 C 390.370 281.547,390.799 280.773,390.767 280.428 C 390.525 277.856,390.826 276.400,391.600 276.400 C 392.312 276.400,392.400 276.133,392.400 273.963 C 392.400 271.862,392.510 271.496,393.200 271.316 C 393.915 271.129,394.000 270.770,394.000 267.953 C 394.000 265.474,394.123 264.800,394.576 264.800 C 394.893 264.800,395.281 264.592,395.438 264.338 C 395.615 264.052,395.548 263.985,395.262 264.162 C 395.008 264.319,394.800 264.257,394.800 264.024 C 394.800 263.791,394.980 263.600,395.200 263.600 C 395.431 263.600,395.600 262.349,395.600 260.647 C 395.600 257.969,395.680 257.673,396.453 257.470 C 397.080 257.306,397.249 257.029,397.090 256.424 C 396.972 255.971,397.052 255.600,397.268 255.600 C 397.484 255.600,397.628 255.105,397.588 254.500 C 397.319 250.416,397.615 247.689,398.349 247.497 C 399.033 247.319,399.104 246.804,399.163 241.551 C 399.200 238.279,399.395 235.743,399.614 235.667 C 400.243 235.450,400.129 182.519,399.500 182.264 C 399.124 182.111,399.148 181.956,399.600 181.637 C 399.962 181.381,400.013 181.210,399.728 181.206 C 399.392 181.202,399.220 179.411,399.128 174.967 C 399.023 169.835,398.888 168.651,398.364 168.267 C 397.805 167.856,397.270 166.413,397.117 164.900 C 397.046 164.197,396.133 164.273,396.133 164.982 C 396.133 165.303,396.283 165.472,396.467 165.359 C 396.650 165.245,396.800 165.343,396.800 165.576 C 396.800 166.327,395.932 166.027,395.716 165.202 C 395.409 164.027,203.742 163.928,202.882 165.102 " stroke="none" fill="#4484f4" fill-rule="evenodd"></path><path id="path1" d="M90.105 242.789 C 88.802 243.099,87.689 243.844,83.545 247.183 C 82.304 248.182,80.774 249.388,80.145 249.861 C 77.651 251.738,70.540 257.274,69.548 258.112 C 68.969 258.600,68.090 259.270,67.594 259.600 C 67.099 259.930,65.106 261.460,63.166 263.000 C 61.226 264.540,57.639 267.330,55.193 269.200 C 52.748 271.070,49.004 273.955,46.874 275.612 C 44.743 277.269,42.145 279.234,41.100 279.980 C 40.055 280.726,39.200 281.455,39.200 281.600 C 39.200 281.746,38.271 282.467,37.136 283.203 C 36.001 283.938,34.791 284.868,34.447 285.270 C 34.104 285.671,33.658 286.000,33.457 286.000 C 33.256 286.000,32.697 286.405,32.215 286.900 C 31.734 287.395,30.828 288.160,30.203 288.600 C 29.007 289.442,24.614 292.839,23.612 293.697 C 22.647 294.523,21.161 295.200,20.311 295.200 C 19.749 295.200,19.586 295.386,19.757 295.833 C 19.891 296.181,20.000 296.541,20.000 296.633 C 20.000 296.725,20.270 296.800,20.600 296.800 C 20.973 296.800,21.200 297.178,21.200 297.800 C 21.200 298.350,21.542 299.142,21.961 299.561 C 22.379 299.979,22.841 300.699,22.987 301.161 C 23.137 301.632,23.593 302.000,24.027 302.000 C 24.676 302.000,24.800 302.288,24.800 303.800 C 24.800 305.333,24.919 305.600,25.600 305.600 C 26.267 305.600,26.400 305.867,26.400 307.200 C 26.400 308.502,26.541 308.800,27.155 308.800 C 27.702 308.800,27.983 309.186,28.173 310.195 C 28.319 310.973,28.781 311.776,29.217 312.009 C 29.648 312.240,30.000 312.782,30.000 313.214 C 30.000 313.733,30.271 314.000,30.800 314.000 C 31.452 314.000,31.600 314.267,31.600 315.437 C 31.600 316.538,31.787 316.924,32.400 317.084 C 32.918 317.219,33.200 317.630,33.200 318.247 C 33.200 318.912,33.427 319.200,33.949 319.200 C 34.513 319.200,34.761 319.594,34.954 320.800 C 35.153 322.044,35.386 322.400,36.005 322.400 C 36.545 322.400,36.800 322.668,36.800 323.237 C 36.800 323.738,37.121 324.159,37.600 324.284 C 38.043 324.400,38.400 324.830,38.400 325.247 C 38.400 325.733,38.683 326.000,39.200 326.000 C 39.779 326.000,40.000 326.267,40.000 326.967 C 40.000 328.348,40.398 329.200,41.043 329.200 C 41.349 329.200,41.600 329.557,41.600 329.992 C 41.600 330.504,41.954 330.874,42.600 331.036 C 43.226 331.193,43.600 331.570,43.600 332.043 C 43.600 332.533,43.882 332.800,44.400 332.800 C 44.933 332.800,45.200 333.067,45.200 333.600 C 45.200 334.133,45.467 334.400,46.000 334.400 C 46.587 334.400,46.800 334.667,46.800 335.400 C 46.800 335.950,47.146 336.746,47.570 337.170 C 47.993 337.593,48.539 338.313,48.784 338.770 C 49.028 339.226,49.492 339.600,49.814 339.600 C 50.136 339.600,50.400 339.960,50.400 340.400 C 50.400 340.933,50.667 341.200,51.200 341.200 C 51.733 341.200,52.000 341.467,52.000 342.000 C 52.000 342.533,52.267 342.800,52.800 342.800 C 53.345 342.800,53.600 343.067,53.600 343.637 C 53.600 344.125,53.919 344.558,54.363 344.674 C 54.783 344.784,55.216 345.217,55.326 345.637 C 55.442 346.081,55.875 346.400,56.363 346.400 C 56.933 346.400,57.200 346.655,57.200 347.200 C 57.200 347.733,57.467 348.000,58.000 348.000 C 58.533 348.000,58.800 348.267,58.800 348.800 C 58.800 349.333,59.067 349.600,59.600 349.600 C 60.145 349.600,60.400 349.867,60.400 350.437 C 60.400 350.925,60.719 351.358,61.163 351.474 C 61.583 351.584,62.016 352.017,62.126 352.437 C 62.242 352.881,62.675 353.200,63.163 353.200 C 63.733 353.200,64.000 353.455,64.000 354.000 C 64.000 354.533,64.267 354.800,64.800 354.800 C 65.333 354.800,65.600 355.067,65.600 355.600 C 65.600 356.133,65.867 356.400,66.400 356.400 C 66.849 356.400,67.200 356.667,67.200 357.009 C 67.200 357.343,67.650 357.822,68.200 358.073 C 68.750 358.323,69.200 358.774,69.200 359.074 C 69.200 359.374,69.754 359.731,70.432 359.866 C 71.109 360.002,71.873 360.447,72.128 360.856 C 72.383 361.265,72.909 361.600,73.296 361.600 C 73.733 361.600,74.000 361.903,74.000 362.400 C 74.000 362.918,74.267 363.200,74.757 363.200 C 75.230 363.200,75.607 363.574,75.764 364.200 C 75.926 364.846,76.296 365.200,76.808 365.200 C 77.243 365.200,77.600 365.451,77.600 365.757 C 77.600 366.402,78.452 366.800,79.833 366.800 C 80.533 366.800,80.800 367.021,80.800 367.600 C 80.800 368.117,81.067 368.400,81.553 368.400 C 81.979 368.400,82.401 368.761,82.524 369.230 C 82.643 369.686,83.114 370.157,83.570 370.276 C 84.027 370.396,84.400 370.740,84.400 371.042 C 84.400 371.373,85.035 371.692,86.000 371.846 C 87.206 372.039,87.600 372.287,87.600 372.851 C 87.600 373.373,87.888 373.600,88.553 373.600 C 89.170 373.600,89.581 373.882,89.716 374.400 C 89.875 375.009,90.262 375.200,91.335 375.200 C 92.492 375.200,92.767 375.361,92.872 376.100 C 92.954 376.678,93.322 377.046,93.900 377.128 C 94.395 377.198,94.800 377.511,94.800 377.823 C 94.800 378.176,95.405 378.487,96.400 378.646 C 97.606 378.839,98.000 379.087,98.000 379.651 C 98.000 380.258,98.303 380.400,99.600 380.400 C 100.933 380.400,101.200 380.533,101.200 381.200 C 101.200 381.837,101.467 382.000,102.505 382.000 C 103.430 382.000,104.029 382.291,104.561 383.000 C 104.974 383.550,105.467 384.000,105.656 384.000 C 105.845 384.000,106.360 384.360,106.800 384.800 C 107.244 385.244,108.133 385.600,108.800 385.600 C 109.559 385.600,110.000 385.805,110.000 386.157 C 110.000 386.800,110.851 387.200,112.219 387.200 C 112.762 387.200,113.356 387.544,113.600 388.000 C 113.900 388.560,114.438 388.800,115.393 388.800 C 116.295 388.800,117.125 389.139,117.838 389.800 C 118.527 390.439,119.385 390.800,120.212 390.800 C 121.170 390.800,121.561 391.008,121.716 391.600 C 121.881 392.231,122.262 392.400,123.516 392.400 C 124.770 392.400,125.151 392.569,125.316 393.200 C 125.496 393.890,125.862 394.000,127.963 394.000 C 130.133 394.000,130.400 394.088,130.400 394.800 C 130.400 395.464,130.667 395.600,131.973 395.600 C 133.162 395.600,133.604 395.784,133.785 396.352 C 134.022 397.100,135.513 397.600,137.506 397.600 C 138.059 397.600,138.726 397.894,138.989 398.252 C 139.289 398.663,140.267 398.975,141.633 399.095 C 142.971 399.213,143.996 399.534,144.312 399.936 C 144.679 400.401,145.661 400.628,147.776 400.735 C 150.266 400.860,150.760 401.003,150.927 401.642 C 151.101 402.307,151.521 402.400,154.363 402.400 C 157.261 402.400,157.600 402.478,157.600 403.150 C 157.600 404.079,158.994 404.400,163.030 404.400 C 165.405 404.400,166.034 404.533,166.351 405.100 C 166.689 405.705,167.510 405.818,172.371 405.930 C 175.467 406.002,178.000 406.227,178.000 406.430 C 178.000 406.653,189.049 406.800,205.800 406.800 C 222.551 406.800,233.600 406.653,233.600 406.430 C 233.600 406.227,236.135 406.002,239.233 405.930 C 244.041 405.819,244.941 405.698,245.377 405.100 C 245.780 404.548,246.483 404.400,248.694 404.400 C 252.447 404.400,253.925 404.066,254.215 403.152 C 254.423 402.498,254.873 402.400,257.664 402.400 C 260.538 402.400,260.897 402.316,261.084 401.600 C 261.265 400.908,261.630 400.800,263.785 400.800 C 265.768 400.800,266.424 400.637,267.000 400.000 C 267.549 399.393,268.232 399.200,269.829 399.200 C 272.304 399.200,273.200 398.923,273.200 398.157 C 273.200 397.810,273.634 397.600,274.350 397.600 C 276.481 397.600,277.972 397.119,278.215 396.352 C 278.402 395.765,278.843 395.600,280.231 395.600 C 281.513 395.600,282.199 395.377,282.693 394.800 C 283.180 394.231,283.873 394.000,285.089 394.000 C 286.533 394.000,286.800 393.875,286.800 393.200 C 286.800 392.535,287.067 392.400,288.386 392.400 C 289.562 392.400,290.082 392.193,290.400 391.600 C 290.677 391.082,291.238 390.800,291.988 390.800 C 293.638 390.800,295.200 390.124,295.200 389.410 C 295.200 388.967,295.630 388.800,296.773 388.800 C 297.995 388.800,298.403 388.621,298.600 388.000 C 298.791 387.399,299.205 387.200,300.264 387.200 C 301.338 387.200,301.725 387.009,301.884 386.400 C 302.032 385.833,302.430 385.600,303.251 385.600 C 303.913 385.600,304.701 385.258,305.093 384.800 C 305.470 384.360,306.055 384.000,306.394 384.000 C 306.733 384.000,307.188 383.595,307.405 383.100 C 307.680 382.473,308.208 382.161,309.145 382.071 C 310.071 381.983,310.553 381.702,310.692 381.171 C 310.842 380.596,311.247 380.400,312.284 380.400 C 313.338 380.400,313.725 380.206,313.884 379.600 C 313.999 379.160,314.389 378.800,314.750 378.800 C 315.112 378.800,315.632 378.440,315.907 378.000 C 316.182 377.560,316.751 377.200,317.171 377.200 C 318.464 377.200,319.200 376.749,319.200 375.957 C 319.200 375.501,319.480 375.200,319.904 375.200 C 320.291 375.200,320.832 374.840,321.107 374.400 C 321.419 373.901,322.040 373.600,322.757 373.600 C 323.570 373.600,323.968 373.366,324.116 372.800 C 324.241 372.321,324.662 372.000,325.163 372.000 C 325.733 372.000,326.000 371.745,326.000 371.200 C 326.000 370.661,326.267 370.400,326.818 370.400 C 327.268 370.400,328.086 369.950,328.636 369.400 C 329.186 368.850,329.886 368.400,330.191 368.400 C 330.496 368.400,330.860 368.040,331.000 367.600 C 331.140 367.160,331.602 366.800,332.027 366.800 C 332.533 366.800,332.800 366.524,332.800 366.000 C 332.800 365.467,333.067 365.200,333.600 365.200 C 334.187 365.200,334.400 364.933,334.400 364.200 C 334.400 363.508,334.619 363.200,335.112 363.200 C 335.503 363.200,336.083 362.840,336.400 362.400 C 336.717 361.960,337.393 361.600,337.901 361.600 C 338.409 361.600,338.934 361.316,339.067 360.969 C 339.200 360.623,339.735 360.177,340.255 359.979 C 340.780 359.780,341.188 359.304,341.172 358.910 C 341.145 358.231,341.131 358.231,340.863 358.912 C 340.613 359.544,340.422 359.477,339.147 358.312 C 338.357 357.590,336.422 356.010,334.846 354.800 C 333.270 353.590,329.960 351.021,327.490 349.092 C 325.021 347.162,322.640 345.312,322.200 344.980 C 321.509 344.459,315.990 340.184,313.309 338.094 C 312.820 337.712,311.943 337.040,311.362 336.600 C 310.781 336.160,310.008 335.530,309.646 335.200 C 309.283 334.870,308.454 334.254,307.804 333.832 C 306.503 332.988,306.307 332.841,304.696 331.511 C 304.089 331.010,303.189 330.289,302.696 329.908 C 302.203 329.528,300.237 327.998,298.326 326.508 C 294.139 323.244,283.550 315.063,276.469 309.622 C 274.859 308.385,273.584 307.090,273.518 306.622 C 273.341 305.389,270.000 305.156,270.000 306.377 C 270.000 306.977,269.742 307.200,269.047 307.200 C 268.442 307.200,268.020 307.482,267.892 307.971 C 267.753 308.502,267.271 308.783,266.345 308.871 C 265.303 308.971,264.971 309.203,264.872 309.900 C 264.762 310.679,264.505 310.800,262.972 310.800 C 261.467 310.800,261.200 310.920,261.200 311.600 C 261.200 312.267,260.933 312.400,259.600 312.400 C 258.267 312.400,258.000 312.533,258.000 313.200 C 258.000 313.870,257.733 314.000,256.363 314.000 C 255.062 314.000,254.682 314.164,254.516 314.800 C 254.370 315.356,253.970 315.600,253.203 315.600 C 250.959 315.600,249.600 316.071,249.600 316.850 C 249.600 317.501,249.279 317.600,247.163 317.600 C 245.062 317.600,244.696 317.710,244.516 318.400 C 244.336 319.087,243.970 319.200,241.916 319.200 C 239.862 319.200,239.496 319.313,239.316 320.000 C 239.129 320.716,238.770 320.800,235.916 320.800 C 233.062 320.800,232.703 320.884,232.516 321.600 C 232.326 322.327,231.970 322.400,228.603 322.400 C 223.927 322.400,222.526 322.675,222.273 323.643 C 222.083 324.370,221.435 324.400,206.002 324.400 L 189.928 324.400 189.206 323.508 C 188.554 322.702,188.055 322.601,184.077 322.465 C 180.161 322.331,179.649 322.230,179.473 321.557 C 179.299 320.893,178.877 320.800,176.037 320.800 C 173.067 320.800,172.800 320.734,172.800 320.000 C 172.800 319.282,172.533 319.200,170.200 319.200 C 167.867 319.200,167.600 319.118,167.600 318.400 C 167.600 317.683,167.333 317.600,165.028 317.600 C 162.665 317.600,162.445 317.527,162.328 316.700 C 162.228 315.997,161.897 315.771,160.815 315.668 C 160.019 315.593,159.202 315.210,158.893 314.768 C 158.545 314.272,157.883 314.000,157.024 314.000 C 156.030 314.000,155.640 313.798,155.484 313.200 C 155.324 312.589,154.938 312.400,153.852 312.400 C 152.838 312.400,152.305 312.170,152.000 311.600 C 151.698 311.036,151.162 310.800,150.186 310.800 C 149.069 310.800,148.800 310.645,148.800 310.005 C 148.800 309.389,148.446 309.153,147.235 308.959 C 146.169 308.789,145.607 308.468,145.472 307.954 C 145.319 307.370,144.906 307.200,143.637 307.200 C 142.267 307.200,142.000 307.070,142.000 306.400 C 142.000 305.867,141.733 305.600,141.200 305.600 C 140.667 305.600,140.400 305.333,140.400 304.800 C 140.400 304.179,140.133 304.000,139.209 304.000 C 138.380 304.000,137.819 303.696,137.363 303.000 C 137.003 302.450,136.369 302.000,135.954 302.000 C 135.467 302.000,135.200 301.717,135.200 301.200 C 135.200 300.683,134.933 300.400,134.447 300.400 C 134.030 300.400,133.600 300.043,133.484 299.600 C 133.295 298.876,132.250 298.534,131.000 298.786 C 130.780 298.830,130.733 298.733,130.897 298.570 C 131.379 298.087,130.378 297.200,129.351 297.200 C 128.603 297.200,128.400 296.986,128.400 296.200 C 128.400 295.467,128.187 295.200,127.600 295.200 C 127.067 295.200,126.800 294.933,126.800 294.400 C 126.800 293.867,126.533 293.600,126.000 293.600 C 125.467 293.600,125.200 293.333,125.200 292.800 C 125.200 292.283,124.933 292.000,124.447 292.000 C 124.030 292.000,123.600 291.643,123.484 291.200 C 123.359 290.721,122.938 290.400,122.437 290.400 C 121.854 290.400,121.600 290.146,121.600 289.563 C 121.600 289.062,121.279 288.641,120.800 288.516 C 120.357 288.400,120.000 287.970,120.000 287.553 C 120.000 287.067,119.717 286.800,119.200 286.800 C 118.667 286.800,118.400 286.533,118.400 286.000 C 118.400 285.413,118.133 285.200,117.400 285.200 C 116.667 285.200,116.400 284.987,116.400 284.400 C 116.400 283.867,116.133 283.600,115.600 283.600 C 115.013 283.600,114.800 283.333,114.800 282.600 C 114.800 281.867,114.587 281.600,114.000 281.600 C 113.467 281.600,113.200 281.333,113.200 280.800 C 113.200 280.360,112.856 279.656,112.436 279.236 C 112.016 278.816,111.609 278.141,111.532 277.736 C 111.455 277.331,110.989 276.942,110.496 276.872 C 109.849 276.780,109.600 276.474,109.600 275.772 C 109.600 275.086,109.378 274.800,108.845 274.800 C 108.298 274.800,108.016 274.413,107.826 273.400 C 107.669 272.562,107.330 272.000,106.982 272.000 C 106.628 272.000,106.400 271.608,106.400 271.000 C 106.400 270.267,106.187 270.000,105.600 270.000 C 105.088 270.000,104.800 269.733,104.800 269.258 C 104.800 268.851,104.350 268.031,103.800 267.438 C 103.250 266.844,102.800 266.008,102.800 265.579 C 102.800 265.067,102.526 264.800,102.000 264.800 C 101.330 264.800,101.200 264.533,101.200 263.163 C 101.200 261.862,101.036 261.482,100.400 261.316 C 99.794 261.157,99.600 260.770,99.600 259.716 C 99.600 258.662,99.406 258.275,98.800 258.116 C 98.275 257.979,98.000 257.570,98.000 256.927 C 98.000 255.627,97.313 254.400,96.586 254.400 C 96.169 254.400,96.000 253.938,96.000 252.800 C 96.000 251.467,95.867 251.200,95.200 251.200 C 94.525 251.200,94.400 250.933,94.400 249.496 C 94.400 248.226,94.197 247.665,93.600 247.293 C 92.977 246.904,92.800 246.360,92.800 244.839 C 92.800 243.178,92.157 242.021,91.467 242.441 C 91.430 242.463,90.817 242.620,90.105 242.789 " stroke="none" fill="#34ab54" fill-rule="evenodd"></path><path id="path2" d="M19.740 112.289 C 19.575 113.120,19.492 114.060,19.555 114.378 C 19.649 114.844,19.556 114.862,19.082 114.468 C 18.338 113.850,18.000 114.588,18.000 116.833 C 18.000 118.104,17.857 118.400,17.243 118.400 C 16.421 118.400,16.000 119.140,16.000 120.586 C 16.000 121.170,15.708 121.583,15.200 121.716 C 14.547 121.887,14.400 122.262,14.400 123.750 C 14.400 125.288,14.295 125.535,13.734 125.319 C 13.287 125.148,13.164 125.217,13.358 125.532 C 13.517 125.789,13.457 126.000,13.224 126.000 C 12.991 126.000,12.821 126.135,12.847 126.300 C 13.163 128.297,12.728 130.400,12.000 130.400 C 11.335 130.400,11.200 130.667,11.200 131.981 C 11.200 133.692,10.476 135.694,9.970 135.382 C 9.556 135.126,9.249 136.208,9.134 138.326 C 9.083 139.275,8.869 140.158,8.658 140.287 C 8.428 140.430,8.411 140.300,8.615 139.962 C 8.903 139.483,8.853 139.481,8.277 139.949 C 7.793 140.341,7.600 141.111,7.600 142.646 C 7.600 144.360,7.439 144.894,6.800 145.293 C 6.146 145.702,5.999 146.230,5.994 148.196 C 5.989 150.079,5.251 153.058,5.200 151.400 C 5.193 151.180,5.013 151.270,4.800 151.600 C 4.587 151.930,4.409 153.775,4.406 155.700 C 4.401 158.865,4.328 159.200,3.643 159.200 C 2.610 159.200,2.400 159.944,2.400 163.609 C 2.400 165.554,2.224 166.862,1.938 167.038 C 1.633 167.227,1.586 167.146,1.800 166.800 C 2.016 166.451,1.967 166.373,1.655 166.566 C 1.398 166.725,1.283 167.010,1.400 167.200 C 1.517 167.390,1.449 167.646,1.249 167.770 C 1.049 167.893,0.858 170.291,0.825 173.097 C 0.792 175.927,0.595 178.259,0.383 178.333 C -0.137 178.515,-0.137 228.286,0.383 228.467 C 0.597 228.541,0.792 230.948,0.825 233.923 C 0.876 238.540,0.982 239.338,1.623 239.936 C 2.199 240.473,2.389 241.331,2.482 243.813 C 2.588 246.677,2.691 247.040,3.500 247.395 C 4.360 247.772,4.592 249.652,4.392 254.608 C 4.375 255.022,5.408 255.911,5.700 255.734 C 5.865 255.635,6.000 256.706,6.000 258.114 C 6.000 260.148,6.161 260.822,6.781 261.383 C 7.334 261.883,7.598 262.723,7.681 264.250 C 7.747 265.437,7.973 266.394,8.184 266.375 C 8.725 266.327,9.139 267.543,9.172 269.276 C 9.187 270.088,9.383 270.866,9.607 271.004 C 9.830 271.142,9.909 271.423,9.783 271.628 C 9.656 271.832,9.754 272.000,10.000 272.000 C 10.246 272.000,10.333 272.184,10.194 272.410 C 10.055 272.635,10.179 272.770,10.470 272.710 C 10.838 272.634,11.037 273.180,11.122 274.500 C 11.223 276.074,11.377 276.400,12.022 276.400 C 12.682 276.400,12.808 276.703,12.850 278.400 C 12.923 281.317,12.944 281.400,13.600 281.400 C 13.943 281.400,14.248 281.828,14.312 282.400 C 14.543 284.460,14.832 285.200,15.408 285.200 C 15.797 285.200,16.000 285.605,16.000 286.382 C 16.000 287.109,16.385 287.948,17.000 288.564 C 17.629 289.192,18.000 290.016,18.000 290.782 C 18.000 291.452,18.180 292.000,18.400 292.000 C 18.620 292.000,18.755 292.225,18.700 292.500 C 18.645 292.775,18.825 292.955,19.100 292.900 C 19.411 292.838,19.600 293.253,19.600 294.000 C 19.600 295.672,21.470 295.531,23.612 293.697 C 24.614 292.839,29.007 289.442,30.203 288.600 C 30.828 288.160,31.734 287.395,32.215 286.900 C 32.697 286.405,33.256 286.000,33.457 286.000 C 33.658 286.000,34.104 285.671,34.447 285.270 C 34.791 284.868,36.001 283.938,37.136 283.203 C 38.271 282.467,39.200 281.746,39.200 281.600 C 39.200 281.455,40.055 280.726,41.100 279.980 C 42.145 279.234,44.743 277.269,46.874 275.612 C 49.004 273.955,52.748 271.070,55.193 269.200 C 57.639 267.330,61.226 264.540,63.166 263.000 C 65.106 261.460,67.099 259.930,67.594 259.600 C 68.090 259.270,68.969 258.600,69.548 258.112 C 70.540 257.274,77.651 251.738,80.145 249.861 C 80.774 249.388,82.304 248.177,83.545 247.172 C 87.487 243.976,89.294 242.800,90.260 242.800 C 91.061 242.800,91.200 242.600,91.200 241.450 C 91.200 238.967,90.756 237.600,89.950 237.600 C 89.299 237.600,89.200 237.279,89.200 235.163 C 89.200 233.062,89.090 232.696,88.400 232.516 C 87.667 232.324,87.600 231.970,87.600 228.316 C 87.600 224.662,87.533 224.307,86.800 224.116 C 86.048 223.919,85.996 223.542,85.935 217.853 C 85.870 211.743,85.795 209.731,85.608 209.000 C 85.551 208.780,85.527 208.465,85.553 208.300 C 85.579 208.135,85.339 208.000,85.019 208.000 C 84.127 208.000,84.227 198.896,85.130 197.873 C 85.860 197.047,85.853 197.126,85.938 188.900 C 85.997 183.087,86.038 182.800,86.800 182.800 C 87.549 182.800,87.600 182.533,87.600 178.600 C 87.600 174.667,87.651 174.400,88.400 174.400 C 89.118 174.400,89.200 174.133,89.200 171.800 C 89.200 169.783,89.331 169.200,89.786 169.200 C 91.708 169.200,91.681 164.367,89.757 163.977 C 89.074 163.838,87.071 162.572,85.307 161.162 C 83.542 159.753,79.992 156.980,77.417 155.000 C 74.842 153.020,71.343 150.320,69.640 149.000 C 67.938 147.680,65.944 146.150,65.209 145.600 C 64.473 145.050,62.326 143.390,60.436 141.912 C 58.546 140.433,56.586 138.903,56.081 138.512 C 55.575 138.120,54.734 137.440,54.212 137.000 C 53.689 136.560,52.613 135.750,51.821 135.200 C 51.029 134.650,49.954 133.840,49.433 133.400 C 46.672 131.071,45.029 129.762,44.174 129.212 C 43.173 128.569,40.282 126.341,33.486 120.972 C 31.239 119.197,29.104 117.577,28.743 117.372 C 28.136 117.028,25.618 115.017,24.021 113.600 C 23.331 112.988,21.386 111.578,20.520 111.063 C 20.197 110.871,19.942 111.271,19.740 112.289 " stroke="none" fill="#fbbb04" fill-rule="evenodd"></path><path id="path3" d="M178.000 0.400 C 178.000 0.647,175.958 0.800,172.675 0.800 C 167.968 0.800,167.255 0.890,166.522 1.572 C 165.893 2.158,165.034 2.362,162.947 2.421 C 159.649 2.513,157.616 2.790,157.661 3.142 C 157.807 4.269,157.464 4.400,154.363 4.400 C 151.462 4.400,151.103 4.483,150.916 5.200 C 150.732 5.902,150.370 6.000,147.953 6.000 C 145.803 6.000,145.037 6.163,144.456 6.744 C 143.995 7.205,142.907 7.565,141.589 7.691 C 140.220 7.823,139.286 8.141,138.960 8.587 C 138.663 8.993,137.824 9.318,136.927 9.374 C 134.193 9.546,134.057 9.590,133.800 10.400 C 133.603 11.021,133.195 11.200,131.973 11.200 C 130.679 11.200,130.400 11.339,130.400 11.981 C 130.400 12.659,130.072 12.777,127.900 12.881 C 125.997 12.972,125.400 13.143,125.400 13.600 C 125.400 14.022,124.884 14.237,123.656 14.325 C 122.372 14.417,121.862 14.642,121.722 15.177 C 121.584 15.704,121.024 15.961,119.682 16.112 C 118.465 16.249,117.599 16.608,117.152 17.160 C 116.730 17.682,116.008 18.000,115.250 18.000 C 114.438 18.000,113.885 18.268,113.600 18.800 C 113.320 19.324,112.762 19.600,111.986 19.600 C 111.334 19.600,110.800 19.791,110.800 20.024 C 110.800 20.257,110.620 20.336,110.400 20.200 C 110.180 20.064,110.000 20.210,110.000 20.524 C 110.000 20.871,109.430 21.188,108.550 21.331 C 107.752 21.460,106.807 21.840,106.450 22.174 C 106.092 22.508,105.313 23.236,104.718 23.791 C 104.052 24.412,103.168 24.800,102.418 24.800 C 101.467 24.800,101.200 24.975,101.200 25.600 C 101.200 26.267,100.933 26.400,99.600 26.400 C 98.267 26.400,98.000 26.533,98.000 27.200 C 98.000 27.782,97.733 28.000,97.024 28.000 C 96.487 28.000,95.934 28.183,95.796 28.407 C 95.658 28.630,95.332 28.691,95.072 28.542 C 94.813 28.394,94.733 28.419,94.897 28.599 C 95.324 29.071,94.433 30.000,93.551 30.000 C 93.067 30.000,92.800 30.284,92.800 30.800 C 92.800 31.563,92.031 31.835,90.469 31.623 C 90.177 31.583,89.841 31.922,89.722 32.375 C 89.581 32.917,89.180 33.200,88.553 33.200 C 87.885 33.200,87.600 33.426,87.600 33.955 C 87.600 34.507,87.209 34.784,86.156 34.982 C 85.205 35.160,84.642 35.518,84.509 36.026 C 84.395 36.462,83.961 36.800,83.516 36.800 C 83.062 36.800,82.636 37.140,82.516 37.600 C 82.400 38.043,81.970 38.400,81.553 38.400 C 81.067 38.400,80.800 38.683,80.800 39.200 C 80.800 39.822,80.533 40.000,79.600 40.000 C 78.940 40.000,78.400 40.191,78.400 40.424 C 78.400 40.657,78.220 40.736,78.000 40.600 C 77.780 40.464,77.600 40.707,77.600 41.139 C 77.600 41.722,77.398 41.872,76.818 41.721 C 76.227 41.566,75.972 41.771,75.775 42.558 C 75.608 43.221,75.238 43.600,74.757 43.600 C 74.267 43.600,74.000 43.882,74.000 44.400 C 74.000 44.897,73.733 45.200,73.296 45.200 C 72.909 45.200,72.383 45.535,72.128 45.944 C 71.873 46.353,71.109 46.798,70.432 46.934 C 69.754 47.069,69.200 47.426,69.200 47.726 C 69.200 48.026,68.750 48.477,68.200 48.727 C 67.650 48.978,67.200 49.457,67.200 49.791 C 67.200 50.133,66.849 50.400,66.400 50.400 C 65.867 50.400,65.600 50.667,65.600 51.200 C 65.600 51.733,65.333 52.000,64.800 52.000 C 64.276 52.000,64.000 52.267,64.000 52.772 C 64.000 53.268,63.678 53.590,63.100 53.672 C 62.605 53.742,62.200 54.070,62.200 54.400 C 62.200 54.730,61.840 55.097,61.400 55.216 C 60.960 55.335,60.542 55.830,60.472 56.316 C 60.391 56.879,60.063 57.200,59.572 57.200 C 59.067 57.200,58.800 57.476,58.800 58.000 C 58.800 58.533,58.533 58.800,58.000 58.800 C 57.476 58.800,57.200 59.067,57.200 59.572 C 57.200 60.068,56.878 60.390,56.300 60.472 C 55.710 60.556,55.400 60.875,55.399 61.399 C 55.399 61.932,55.132 62.199,54.599 62.199 C 54.075 62.200,53.756 62.510,53.672 63.100 C 53.590 63.678,53.268 64.000,52.772 64.000 C 52.267 64.000,52.000 64.276,52.000 64.800 C 52.000 65.333,51.733 65.600,51.200 65.600 C 50.667 65.600,50.400 65.867,50.400 66.400 C 50.400 66.840,50.136 67.200,49.814 67.200 C 49.492 67.200,49.028 67.574,48.784 68.030 C 48.539 68.487,47.993 69.207,47.570 69.630 C 47.146 70.054,46.800 70.850,46.800 71.400 C 46.800 72.133,46.587 72.400,46.000 72.400 C 45.467 72.400,45.200 72.667,45.200 73.200 C 45.200 73.733,44.933 74.000,44.400 74.000 C 43.882 74.000,43.600 74.267,43.600 74.757 C 43.600 75.238,43.221 75.608,42.558 75.775 C 41.771 75.972,41.566 76.227,41.721 76.818 C 41.872 77.398,41.722 77.600,41.139 77.600 C 40.707 77.600,40.464 77.780,40.600 78.000 C 40.736 78.220,40.657 78.400,40.424 78.400 C 40.191 78.400,40.000 78.940,40.000 79.600 C 40.000 80.533,39.822 80.800,39.200 80.800 C 38.676 80.800,38.400 81.067,38.400 81.573 C 38.400 81.998,38.051 82.457,37.625 82.592 C 37.199 82.727,36.794 83.234,36.725 83.719 C 36.656 84.204,36.330 84.600,36.000 84.600 C 35.639 84.600,35.252 85.198,35.029 86.100 C 34.770 87.150,34.440 87.600,33.929 87.600 C 33.428 87.600,33.200 87.897,33.200 88.551 C 33.200 89.074,32.895 89.749,32.523 90.051 C 31.947 90.519,31.897 90.517,32.185 90.038 C 32.415 89.657,32.375 89.568,32.062 89.762 C 31.808 89.919,31.600 90.667,31.600 91.424 C 31.600 92.390,31.418 92.800,30.990 92.800 C 30.655 92.800,30.207 93.255,29.996 93.810 C 29.785 94.366,29.249 95.210,28.806 95.686 C 28.363 96.162,28.000 96.877,28.000 97.275 C 28.000 97.733,27.706 98.000,27.200 98.000 C 26.533 98.000,26.400 98.267,26.400 99.600 C 26.400 100.933,26.267 101.200,25.600 101.200 C 24.919 101.200,24.800 101.467,24.800 103.000 C 24.800 104.512,24.676 104.800,24.027 104.800 C 23.193 104.800,22.567 106.100,23.036 106.858 C 23.202 107.126,23.150 107.216,22.915 107.071 C 22.355 106.725,21.302 107.984,21.136 109.200 C 21.060 109.762,20.737 110.200,20.400 110.200 C 20.051 110.200,19.761 110.619,19.707 111.200 C 19.635 111.969,19.683 112.036,19.916 111.490 C 20.279 110.635,21.876 111.655,26.492 115.694 C 27.431 116.516,28.313 117.191,28.450 117.194 C 28.588 117.197,30.698 118.775,33.140 120.700 C 40.706 126.664,43.186 128.577,44.174 129.212 C 45.029 129.762,46.672 131.071,49.433 133.400 C 49.954 133.840,51.029 134.650,51.821 135.200 C 52.613 135.750,53.689 136.560,54.212 137.000 C 54.734 137.440,55.575 138.120,56.081 138.512 C 56.586 138.903,58.546 140.433,60.436 141.912 C 62.326 143.390,64.473 145.050,65.209 145.600 C 65.944 146.150,67.938 147.680,69.640 149.000 C 71.343 150.320,74.842 153.020,77.417 155.000 C 79.992 156.980,83.537 159.749,85.294 161.152 C 90.403 165.232,92.800 165.360,92.800 161.553 C 92.800 159.467,92.891 159.200,93.600 159.200 C 94.281 159.200,94.400 158.933,94.400 157.400 C 94.400 155.867,94.519 155.600,95.200 155.600 C 95.864 155.600,96.000 155.333,96.000 154.027 C 96.000 152.814,96.180 152.397,96.786 152.204 C 97.292 152.044,97.668 151.445,97.841 150.523 C 97.989 149.735,98.445 148.755,98.855 148.345 C 99.265 147.935,99.600 147.171,99.600 146.647 C 99.600 146.030,99.882 145.619,100.400 145.484 C 101.036 145.318,101.200 144.938,101.200 143.637 C 101.200 142.267,101.330 142.000,102.000 142.000 C 102.621 142.000,102.800 141.733,102.800 140.809 C 102.800 139.980,103.104 139.419,103.800 138.963 C 104.350 138.603,104.800 138.071,104.800 137.781 C 104.800 137.491,105.160 137.140,105.600 137.000 C 106.160 136.822,106.400 136.395,106.400 135.576 C 106.400 134.840,106.696 134.222,107.200 133.907 C 107.640 133.632,108.000 133.091,108.000 132.704 C 108.000 132.267,108.303 132.000,108.800 132.000 C 109.387 132.000,109.600 131.733,109.600 131.000 C 109.600 130.280,109.815 130.000,110.368 130.000 C 110.899 130.000,111.219 129.624,111.404 128.781 C 111.551 128.110,112.016 127.347,112.436 127.085 C 112.856 126.822,113.200 126.291,113.200 125.904 C 113.200 125.467,113.503 125.200,114.000 125.200 C 114.517 125.200,114.800 124.933,114.800 124.447 C 114.800 124.030,115.157 123.600,115.600 123.484 C 116.079 123.359,116.400 122.938,116.400 122.437 C 116.400 121.854,116.654 121.600,117.237 121.600 C 117.738 121.600,118.159 121.279,118.284 120.800 C 118.399 120.360,118.759 120.000,119.084 120.000 C 119.409 120.000,119.767 119.646,119.881 119.213 C 119.994 118.781,120.427 118.318,120.843 118.186 C 121.259 118.054,121.600 117.598,121.600 117.173 C 121.600 116.676,121.876 116.400,122.373 116.400 C 122.798 116.400,123.260 116.040,123.400 115.600 C 123.540 115.160,123.929 114.800,124.264 114.800 C 124.600 114.800,124.969 114.440,125.084 114.000 C 125.200 113.557,125.630 113.200,126.047 113.200 C 126.533 113.200,126.800 112.917,126.800 112.400 C 126.800 111.867,127.067 111.600,127.600 111.600 C 128.187 111.600,128.400 111.333,128.400 110.600 C 128.400 109.800,128.600 109.600,129.400 109.600 C 130.133 109.600,130.400 109.387,130.400 108.800 C 130.400 108.213,130.667 108.000,131.400 108.000 C 131.950 108.000,132.760 107.640,133.200 107.200 C 133.640 106.760,134.270 106.400,134.600 106.400 C 134.930 106.400,135.200 106.053,135.200 105.628 C 135.200 105.132,135.522 104.810,136.100 104.728 C 136.678 104.646,137.046 104.278,137.128 103.700 C 137.236 102.941,137.502 102.800,138.828 102.800 C 140.133 102.800,140.400 102.664,140.400 102.000 C 140.400 101.467,140.667 101.200,141.200 101.200 C 141.733 101.200,142.000 100.933,142.000 100.400 C 142.000 99.730,142.267 99.600,143.637 99.600 C 144.912 99.600,145.319 99.431,145.474 98.838 C 145.603 98.346,146.173 97.982,147.081 97.811 C 147.998 97.639,148.559 97.278,148.691 96.774 C 148.817 96.291,149.240 96.000,149.814 96.000 C 151.151 96.000,152.000 95.595,152.000 94.957 C 152.000 94.587,152.470 94.400,153.397 94.400 C 154.360 94.400,154.948 94.152,155.293 93.600 C 155.594 93.118,156.226 92.800,156.881 92.800 C 157.479 92.800,158.291 92.455,158.684 92.033 C 159.078 91.610,160.030 91.205,160.800 91.133 C 161.898 91.029,162.228 90.806,162.328 90.100 C 162.444 89.280,162.671 89.200,164.865 89.200 C 166.938 89.200,167.304 89.088,167.484 88.400 C 167.664 87.713,168.030 87.600,170.084 87.600 C 172.138 87.600,172.504 87.487,172.684 86.800 C 172.867 86.099,173.230 86.000,175.614 86.000 C 178.689 86.000,179.600 85.762,179.600 84.957 C 179.600 84.520,180.416 84.400,183.382 84.400 C 186.882 84.400,187.238 84.326,188.164 83.400 L 189.164 82.400 204.819 82.400 C 219.815 82.400,220.483 82.432,220.672 83.153 C 220.904 84.041,222.539 84.389,226.500 84.396 C 228.631 84.399,229.200 84.526,229.200 85.000 C 229.200 85.330,229.380 85.623,229.600 85.650 C 229.820 85.678,230.180 85.745,230.400 85.800 C 230.620 85.855,231.958 85.923,233.373 85.950 C 235.571 85.993,235.983 86.117,236.200 86.800 C 236.414 87.473,236.805 87.600,238.664 87.600 C 240.538 87.600,240.907 87.722,241.084 88.400 C 241.263 89.086,241.630 89.200,243.647 89.200 C 245.726 89.200,246.000 89.292,246.000 89.992 C 246.000 90.774,246.533 91.022,248.800 91.298 C 249.368 91.366,249.752 91.644,249.690 91.939 C 249.630 92.225,249.752 92.353,249.962 92.223 C 250.173 92.093,250.458 92.170,250.596 92.393 C 250.734 92.617,251.243 92.800,251.727 92.800 C 252.211 92.800,252.832 93.160,253.107 93.600 C 253.446 94.143,254.040 94.400,254.957 94.400 C 255.970 94.400,256.359 94.599,256.516 95.200 C 256.676 95.813,257.062 96.000,258.163 96.000 C 259.330 96.000,259.600 96.149,259.600 96.795 C 259.600 97.418,259.959 97.648,261.253 97.855 C 262.385 98.036,262.967 98.352,263.100 98.860 C 263.206 99.267,263.611 99.600,264.000 99.600 C 264.389 99.600,264.802 99.965,264.919 100.411 C 265.036 100.858,265.282 101.196,265.466 101.164 C 266.917 100.909,268.000 101.266,268.000 102.000 C 268.000 102.564,268.267 102.800,268.905 102.800 C 269.447 102.800,269.969 103.149,270.205 103.669 C 270.422 104.148,270.960 104.588,271.399 104.649 C 271.839 104.709,272.498 105.128,272.864 105.579 C 273.229 106.031,273.814 106.400,274.164 106.400 C 274.533 106.400,274.800 106.735,274.800 107.200 C 274.800 107.787,275.067 108.000,275.800 108.000 C 276.533 108.000,276.800 108.213,276.800 108.800 C 276.800 109.333,277.067 109.600,277.600 109.600 C 278.137 109.600,278.400 109.867,278.400 110.413 C 278.400 110.859,278.715 111.343,279.100 111.486 C 279.485 111.630,280.033 112.071,280.318 112.468 C 280.962 113.361,282.722 113.277,283.020 112.338 C 283.140 111.960,283.634 111.594,284.119 111.525 C 284.679 111.446,285.047 111.072,285.128 110.500 C 285.210 109.922,285.532 109.600,286.028 109.600 C 286.533 109.600,286.800 109.324,286.800 108.800 C 286.800 108.267,287.067 108.000,287.600 108.000 C 288.133 108.000,288.400 107.733,288.400 107.200 C 288.400 106.655,288.667 106.400,289.237 106.400 C 289.725 106.400,290.158 106.081,290.274 105.637 C 290.384 105.217,290.817 104.784,291.237 104.674 C 291.681 104.558,292.000 104.125,292.000 103.637 C 292.000 103.067,292.255 102.800,292.800 102.800 C 293.333 102.800,293.600 102.533,293.600 102.000 C 293.600 101.467,293.867 101.200,294.400 101.200 C 294.933 101.200,295.200 100.933,295.200 100.400 C 295.200 99.855,295.467 99.600,296.037 99.600 C 296.525 99.600,296.958 99.281,297.074 98.837 C 297.184 98.417,297.617 97.984,298.037 97.874 C 298.481 97.758,298.800 97.325,298.800 96.837 C 298.800 96.267,299.055 96.000,299.600 96.000 C 300.133 96.000,300.400 95.733,300.400 95.200 C 300.400 94.667,300.667 94.400,301.200 94.400 C 301.733 94.400,302.000 94.133,302.000 93.600 C 302.000 93.055,302.267 92.800,302.837 92.800 C 303.325 92.800,303.758 92.481,303.874 92.037 C 303.984 91.617,304.417 91.184,304.837 91.074 C 305.281 90.958,305.600 90.525,305.600 90.037 C 305.600 89.467,305.855 89.200,306.400 89.200 C 306.933 89.200,307.200 88.933,307.200 88.400 C 307.200 87.867,307.467 87.600,308.000 87.600 C 308.533 87.600,308.800 87.333,308.800 86.800 C 308.800 86.255,309.067 86.000,309.637 86.000 C 310.125 86.000,310.558 85.681,310.674 85.237 C 310.784 84.817,311.217 84.384,311.637 84.274 C 312.081 84.158,312.400 83.725,312.400 83.237 C 312.400 82.667,312.655 82.400,313.200 82.400 C 313.733 82.400,314.000 82.133,314.000 81.600 C 314.000 81.067,314.267 80.800,314.800 80.800 C 315.333 80.800,315.600 80.533,315.600 80.000 C 315.600 79.455,315.867 79.200,316.437 79.200 C 316.925 79.200,317.358 78.881,317.474 78.437 C 317.584 78.017,318.017 77.584,318.437 77.474 C 318.881 77.358,319.200 76.925,319.200 76.437 C 319.200 75.867,319.455 75.600,320.000 75.600 C 320.533 75.600,320.800 75.333,320.800 74.800 C 320.800 74.267,321.067 74.000,321.600 74.000 C 322.133 74.000,322.400 73.733,322.400 73.200 C 322.400 72.613,322.667 72.400,323.400 72.400 C 324.133 72.400,324.400 72.187,324.400 71.600 C 324.400 71.067,324.667 70.800,325.200 70.800 C 325.787 70.800,326.000 70.533,326.000 69.800 C 326.000 69.067,326.213 68.800,326.800 68.800 C 327.333 68.800,327.600 68.533,327.600 68.000 C 327.600 67.467,327.867 67.200,328.400 67.200 C 328.933 67.200,329.200 66.933,329.200 66.400 C 329.200 65.813,329.467 65.600,330.200 65.600 C 330.933 65.600,331.200 65.387,331.200 64.800 C 331.200 64.267,331.467 64.000,332.000 64.000 C 332.587 64.000,332.800 63.733,332.800 63.000 C 332.800 62.267,333.013 62.000,333.600 62.000 C 334.133 62.000,334.400 61.733,334.400 61.200 C 334.400 60.667,334.667 60.400,335.200 60.400 C 335.733 60.400,336.000 60.133,336.000 59.600 C 336.000 59.013,336.267 58.800,337.000 58.800 C 337.713 58.800,338.000 58.584,338.000 58.047 C 338.000 57.630,338.357 57.200,338.800 57.084 C 339.279 56.959,339.600 56.538,339.600 56.037 C 339.600 55.467,339.855 55.200,340.400 55.200 C 341.111 55.200,341.200 54.933,341.200 52.800 C 341.200 50.667,341.111 50.400,340.400 50.400 C 339.855 50.400,339.600 50.133,339.600 49.563 C 339.600 49.075,339.281 48.642,338.837 48.526 C 338.417 48.416,337.984 47.983,337.874 47.563 C 337.758 47.119,337.325 46.800,336.837 46.800 C 336.267 46.800,336.000 46.545,336.000 46.000 C 336.000 45.483,335.733 45.200,335.247 45.200 C 334.830 45.200,334.400 44.843,334.284 44.400 C 334.163 43.939,333.738 43.600,333.280 43.600 C 332.843 43.600,332.388 43.346,332.269 43.035 C 332.150 42.725,331.410 42.239,330.626 41.955 C 329.711 41.624,329.200 41.182,329.200 40.720 C 329.200 40.267,328.904 40.000,328.400 40.000 C 327.867 40.000,327.600 39.733,327.600 39.200 C 327.600 38.674,327.333 38.400,326.823 38.400 C 326.395 38.400,325.810 38.085,325.523 37.700 C 325.235 37.315,324.640 36.946,324.200 36.881 C 322.729 36.662,322.400 36.430,322.400 35.613 C 322.400 35.083,322.137 34.800,321.647 34.800 C 321.230 34.800,320.800 34.443,320.684 34.000 C 320.533 33.422,320.138 33.200,319.264 33.200 C 318.405 33.200,317.980 32.968,317.800 32.400 C 317.638 31.889,317.195 31.600,316.573 31.600 C 315.889 31.600,315.600 31.378,315.600 30.851 C 315.600 30.291,315.210 30.040,314.047 29.854 C 312.953 29.679,312.433 29.369,312.285 28.803 C 312.164 28.341,311.739 28.000,311.284 28.000 C 310.830 28.000,310.404 27.660,310.284 27.200 C 310.124 26.587,309.738 26.400,308.637 26.400 C 307.467 26.400,307.200 26.252,307.200 25.600 C 307.200 24.933,306.933 24.800,305.600 24.800 C 304.457 24.800,304.000 24.632,304.000 24.210 C 304.000 23.886,303.460 23.341,302.800 23.000 C 302.140 22.659,301.600 22.206,301.600 21.994 C 301.600 21.783,300.896 21.497,300.035 21.359 C 298.969 21.189,298.407 20.868,298.272 20.354 C 298.127 19.798,297.710 19.600,296.684 19.600 C 295.630 19.600,295.243 19.406,295.084 18.800 C 294.919 18.169,294.538 18.000,293.284 18.000 C 292.037 18.000,291.649 17.829,291.487 17.211 C 291.341 16.653,290.807 16.347,289.659 16.163 C 288.767 16.020,287.731 15.565,287.356 15.152 C 286.919 14.669,286.136 14.400,285.165 14.400 C 284.005 14.400,283.595 14.214,283.400 13.600 C 283.204 12.982,282.795 12.800,281.600 12.800 C 280.411 12.800,279.996 12.617,279.803 12.008 C 279.664 11.573,279.427 11.234,279.276 11.255 C 277.104 11.565,274.800 11.124,274.800 10.400 C 274.800 9.857,274.511 9.578,273.900 9.532 C 273.405 9.494,272.730 9.423,272.400 9.374 C 272.070 9.325,271.305 9.266,270.700 9.243 C 269.881 9.211,269.600 8.996,269.600 8.400 C 269.600 7.682,269.333 7.600,267.000 7.600 C 265.570 7.600,264.421 7.465,264.447 7.300 C 264.625 6.173,264.279 6.000,261.847 6.000 C 259.630 6.000,259.266 5.895,259.084 5.200 C 258.897 4.483,258.538 4.400,255.637 4.400 C 253.085 4.400,252.400 4.278,252.400 3.824 C 252.400 2.765,251.315 2.533,245.900 2.435 C 244.559 2.410,244.000 2.236,244.000 1.843 C 244.000 0.968,243.060 0.800,238.167 0.800 C 235.389 0.800,233.600 0.643,233.600 0.400 C 233.600 0.137,224.067 0.000,205.800 0.000 C 187.533 0.000,178.000 0.137,178.000 0.400 M10.200 134.400 C 10.336 134.620,10.246 134.800,10.000 134.800 C 9.754 134.800,9.676 134.999,9.826 135.243 C 10.017 135.551,10.204 135.521,10.444 135.143 C 10.910 134.408,10.886 134.000,10.376 134.000 C 10.143 134.000,10.064 134.180,10.200 134.400 M3.467 158.267 C 3.006 158.727,3.175 159.200,3.800 159.200 C 4.130 159.200,4.400 158.930,4.400 158.600 C 4.400 157.975,3.927 157.806,3.467 158.267 M87.600 175.033 C 87.600 175.740,88.461 175.617,88.708 174.875 C 88.795 174.614,88.582 174.400,88.233 174.400 C 87.885 174.400,87.600 174.685,87.600 175.033 M85.134 197.768 C 84.745 198.289,84.599 198.875,84.784 199.173 C 85.007 199.535,85.180 199.555,85.374 199.243 C 85.524 198.999,85.422 198.800,85.147 198.800 C 84.862 198.800,84.962 198.570,85.379 198.265 C 85.781 197.971,86.040 197.538,85.955 197.302 C 85.870 197.067,85.500 197.276,85.134 197.768 M87.600 231.753 C 87.600 232.058,87.957 232.400,88.393 232.514 C 89.068 232.690,89.125 232.608,88.779 231.961 C 88.305 231.075,87.600 230.951,87.600 231.753 M3.221 248.039 C 3.695 248.925,4.400 249.049,4.400 248.247 C 4.400 247.942,4.043 247.600,3.607 247.486 C 2.932 247.310,2.875 247.392,3.221 248.039 " stroke="none" fill="#ec4434" fill-rule="evenodd"></path><path id="path4" d="M395.654 164.980 C 395.850 165.994,396.637 166.202,396.972 165.329 C 397.121 164.942,397.114 164.752,396.958 164.909 C 396.802 165.065,396.411 164.975,396.091 164.709 C 395.611 164.311,395.534 164.360,395.654 164.980 M273.490 306.535 C 273.599 307.106,274.767 308.314,276.486 309.635 C 283.484 315.012,294.132 323.238,298.326 326.508 C 300.237 327.998,302.203 329.528,302.696 329.908 C 303.189 330.289,304.089 331.010,304.696 331.511 C 306.307 332.841,306.503 332.988,307.804 333.832 C 308.454 334.254,309.286 334.870,309.651 335.200 C 310.285 335.772,311.279 336.562,313.291 338.092 C 313.791 338.472,315.820 340.042,317.800 341.580 C 319.780 343.118,321.760 344.648,322.200 344.980 C 322.640 345.312,325.021 347.162,327.490 349.092 C 329.960 351.021,333.270 353.590,334.846 354.800 C 336.422 356.010,338.359 357.592,339.151 358.315 C 340.101 359.184,340.644 359.456,340.749 359.115 C 340.836 358.832,341.095 358.364,341.324 358.075 C 341.653 357.660,341.526 357.603,340.720 357.806 C 339.843 358.026,339.640 357.889,339.271 356.831 C 339.035 356.154,338.677 355.600,338.476 355.600 C 338.104 355.600,335.523 353.721,334.366 352.609 C 334.018 352.274,333.529 352.000,333.281 352.000 C 333.032 352.000,332.635 351.640,332.400 351.200 C 332.165 350.760,331.717 350.400,331.406 350.400 C 331.094 350.400,330.696 350.158,330.520 349.863 C 330.344 349.568,329.660 348.987,329.000 348.573 C 328.340 348.158,327.656 347.590,327.480 347.310 C 327.304 347.029,326.965 346.800,326.726 346.800 C 326.487 346.800,325.891 346.395,325.402 345.900 C 324.913 345.405,324.082 344.683,323.556 344.296 C 323.030 343.910,322.060 343.175,321.400 342.665 C 320.740 342.154,319.885 341.621,319.500 341.481 C 319.115 341.340,318.800 341.075,318.800 340.891 C 318.800 340.455,313.466 336.400,312.893 336.400 C 312.652 336.400,312.340 336.040,312.200 335.600 C 312.060 335.160,311.610 334.800,311.200 334.800 C 310.790 334.800,310.346 334.459,310.214 334.043 C 310.082 333.627,309.664 333.181,309.287 333.053 C 308.909 332.924,307.790 332.180,306.800 331.400 C 305.810 330.620,304.685 329.874,304.300 329.744 C 303.915 329.613,303.600 329.287,303.600 329.018 C 303.600 328.749,303.145 328.321,302.589 328.068 C 302.033 327.814,301.473 327.335,301.346 327.003 C 301.219 326.672,300.935 326.400,300.715 326.400 C 300.495 326.400,299.781 325.950,299.127 325.400 C 298.473 324.850,297.682 324.400,297.369 324.400 C 297.056 324.400,296.800 324.130,296.800 323.800 C 296.800 323.470,296.643 323.200,296.451 323.200 C 296.259 323.200,294.954 322.305,293.551 321.212 C 292.148 320.119,290.580 318.904,290.067 318.512 C 288.879 317.606,287.398 316.421,286.176 315.400 C 285.650 314.960,284.571 314.150,283.779 313.600 C 282.987 313.050,281.911 312.240,281.388 311.800 C 280.866 311.360,279.972 310.640,279.403 310.200 C 278.834 309.760,277.906 309.001,277.340 308.513 C 276.774 308.025,275.990 307.524,275.599 307.400 C 275.207 307.275,274.794 306.819,274.681 306.387 C 274.377 305.227,273.266 305.366,273.490 306.535 " stroke="none" fill="#3c8ece" fill-rule="evenodd"></path></g></svg>